@startuml

class A{
    void m1(B b)
}
class B{}
A ..> B : 依赖

class C{}
class D{}
C <|-- D : 继承

interface E{
    void m2()
}
class F{
    void m2()
}
E <|.. F : 实现

class G{
    H h
    M m
}
class H{}
class M{
    G g
}
G --> H : 关联
G <--> M : 关联
H - M : 关联

class I{
    J j
    void setJ(J j)
}
class J{}
I o-- J : 聚合

class K{
    L l = new L();
    --
}
class L{}
K *-- L : 组合

@enduml