@startuml

interface I1{
    void m1()
}
interface I2{
    void m2()
    void m3()
}
interface I3{
    void m4()
    void m5()
}
class A{
    void m1(I1 i)
    void m2(I2 i)
    void m3(I2 i)
}
class B{
    void m1()
    void m2()
    void m3()
}
class C{
    void m1(I1 i)
    void m4(I3 i)
    void m5(I3 i)
}
class D{
    void m1()
    void m4()
    void m5()
}

A ..> I1
A ..> I2
C ..> I1
C ..> I3
I1 <|-- B
I2 <|-- B
I1 <|-- D
I3 <|-- D

@enduml